<svg width="54" height="59" viewBox="0 0 54 59" fill="none" xmlns="http://www.w3.org/2000/svg">
<path d="M43.9514 32.8047C41.4319 35.8518 38.5813 38.9833 35.5049 42.0597C32.4284 45.1362 29.2973 47.988 26.2507 50.5066C26.4562 50.5139 26.6614 50.5222 26.8687 50.5222C31.4019 50.5171 35.748 48.714 38.9534 45.5086C42.1588 42.3031 43.9619 37.9571 43.967 33.4239C43.967 33.2163 43.9588 33.0105 43.9514 32.8047Z" fill="#1F294A"/>
<path d="M51.0506 9.24356C48.6818 6.87392 44.3438 7.71418 37.7884 11.8117C35.3745 13.342 33.0461 15.0035 30.8138 16.7885C27.9752 16.1129 25.0109 16.1754 22.2033 16.9702C19.3957 17.765 16.8384 19.2655 14.7752 21.3288C12.7119 23.3921 11.2114 25.9494 10.4166 28.7569C9.62178 31.5645 9.55921 34.5289 10.2348 37.3675C8.44973 39.5997 6.7883 41.928 5.25801 44.3421C1.16023 50.8977 0.319358 55.2358 2.68686 57.6057C3.13889 58.0462 3.67622 58.3895 4.26582 58.6147C4.85541 58.8398 5.48483 58.942 6.11537 58.915C8.54974 58.915 11.8067 57.6268 15.949 55.0373C21.3206 51.6787 27.6519 46.4577 33.7764 40.334C39.901 34.2104 45.1224 27.8782 48.4797 22.5066C52.5772 15.9501 53.4181 11.612 51.0506 9.24356ZM43.6128 21.0472C40.4335 25.8661 35.7143 31.4893 30.3241 36.878C24.9339 42.2668 19.3122 46.9874 14.4932 50.1668C9.7512 53.2951 7.19592 54.0044 6.25643 54.0374C6.28941 53.0985 6.99868 50.5426 10.1271 45.8006C10.8205 44.7497 11.5926 43.6587 12.4219 42.5422C13.3221 43.9645 14.4255 45.2476 15.6971 46.3505C20.2734 42.9482 24.5857 39.2044 28.5969 35.1511C32.65 31.1402 36.3938 26.8282 39.7962 22.2523C38.6932 20.9801 37.4099 19.8762 35.987 18.9758C37.1036 18.145 38.1945 17.3744 39.2454 16.681C43.9875 13.5526 46.5427 12.8434 47.4822 12.8104C47.4492 13.7496 46.74 16.3052 43.6116 21.0472H43.6128Z" fill="#1F294A"/>
<path d="M4.88525 10.2191C6.50423 10.2209 8.05637 10.8649 9.20116 12.0097C10.346 13.1545 10.9899 14.7066 10.9918 16.3256C10.9918 16.6495 11.1204 16.9601 11.3495 17.1892C11.5785 17.4182 11.8892 17.5469 12.2131 17.5469C12.537 17.5469 12.8476 17.4182 13.0767 17.1892C13.3057 16.9601 13.4344 16.6495 13.4344 16.3256C13.4362 14.7066 14.0802 13.1545 15.225 12.0097C16.3698 10.8649 17.9219 10.2209 19.5409 10.2191C19.8648 10.2191 20.1755 10.0904 20.4045 9.86134C20.6336 9.6323 20.7622 9.32166 20.7622 8.99775C20.7622 8.67384 20.6336 8.3632 20.4045 8.13416C20.1755 7.90512 19.8648 7.77644 19.5409 7.77644C17.9219 7.77459 16.3698 7.13062 15.225 5.98583C14.0802 4.84104 13.4362 3.2889 13.4344 1.66991C13.4344 1.346 13.3057 1.03536 13.0767 0.806321C12.8476 0.577281 12.537 0.448608 12.2131 0.448608C11.8892 0.448608 11.5785 0.577281 11.3495 0.806321C11.1204 1.03536 10.9918 1.346 10.9918 1.66991C10.9899 3.2889 10.346 4.84104 9.20116 5.98583C8.05637 7.13062 6.50423 7.77459 4.88525 7.77644C4.56134 7.77644 4.25069 7.90512 4.02165 8.13416C3.79261 8.3632 3.66394 8.67384 3.66394 8.99775C3.66394 9.32166 3.79261 9.6323 4.02165 9.86134C4.25069 10.0904 4.56134 10.2191 4.88525 10.2191Z" fill="#1F294A"/>
<path d="M43.967 54.1861C45.316 54.1861 46.4096 53.0925 46.4096 51.7435C46.4096 50.3944 45.316 49.3008 43.967 49.3008C42.618 49.3008 41.5244 50.3944 41.5244 51.7435C41.5244 53.0925 42.618 54.1861 43.967 54.1861Z" fill="#1F294A"/>
<path d="M2.44261 34.6452C3.79163 34.6452 4.88522 33.5516 4.88522 32.2026C4.88522 30.8535 3.79163 29.7599 2.44261 29.7599C1.09359 29.7599 0 30.8535 0 32.2026C0 33.5516 1.09359 34.6452 2.44261 34.6452Z" fill="#1F294A"/>
<path d="M51.2948 32.2026C52.6439 32.2026 53.7375 31.109 53.7375 29.76C53.7375 28.4109 52.6439 27.3174 51.2948 27.3174C49.9458 27.3174 48.8522 28.4109 48.8522 29.76C48.8522 31.109 49.9458 32.2026 51.2948 32.2026Z" fill="#1F294A"/>
</svg>
